<svg width="464" height="353" viewBox="0 0 464 353" fill="none" xmlns="http://www.w3.org/2000/svg">
<g clip-path="url(#clip0_3424_1399)">
<path d="M185.669 73.2034H183.975V26.836C183.975 12.0168 171.958 0 157.138 0H58.8939C44.0738 0 32.0563 12.0168 32.0563 26.836V281.212C32.0563 296.031 44.0738 308.048 58.8939 308.048H157.138C171.958 308.048 183.975 296.031 183.975 281.212V106.207H185.669V73.2034Z" fill="#3F3D56"/>
<path d="M158.223 6.98047H145.399C147.383 11.852 145.046 17.4056 140.18 19.3952C139.037 19.8613 137.815 20.1 136.587 20.1H80.3027C75.0443 20.1 70.7807 15.8367 70.7807 10.5787C70.7807 9.34517 71.0195 8.12303 71.4857 6.98615H59.5079C48.4397 6.98615 39.4635 15.9561 39.4635 27.0293V281.03C39.4635 292.098 48.434 301.073 59.5079 301.073H158.223C169.292 301.073 178.268 292.103 178.268 281.03V27.0236C178.268 15.9561 169.297 6.98047 158.223 6.98047Z" fill="white"/>
<path d="M217.157 308.093H0.568474C0.255813 308.093 0 307.838 0 307.525C0 307.212 0.255813 306.957 0.568474 306.957H217.157C217.47 306.957 217.726 307.212 217.726 307.525C217.726 307.838 217.47 308.093 217.157 308.093Z" fill="#E0E0E0"/>
<path d="M108.863 196.498C135.377 196.498 156.87 175.005 156.87 148.493C156.87 121.981 135.377 100.489 108.863 100.489C82.3489 100.489 60.8552 121.981 60.8552 148.493C60.8552 175.005 82.3489 196.498 108.863 196.498Z" fill="#FAAE43"/>
<path d="M104.105 166.808C103.025 166.808 101.973 166.461 101.109 165.813L101.058 165.774L89.7735 157.145C87.5735 155.462 87.1585 152.313 88.8469 150.113C90.5295 147.913 93.6789 147.498 95.8789 149.186L103.184 154.791L120.454 132.264C122.137 130.07 125.286 129.655 127.48 131.338C129.675 133.026 130.09 136.169 128.407 138.363L108.095 164.847C107.14 166.086 105.668 166.808 104.11 166.802L104.105 166.808Z" fill="white"/>
<path d="M394.657 312.811C395.243 311.868 395.931 310.992 396.71 310.197C397.028 309.861 397.369 309.549 397.716 309.247C404.316 303.375 414.429 303.961 420.301 310.56C422.257 312.76 423.57 315.449 424.093 318.348C426.435 309.679 420.335 301.136 414.196 294.576C408.056 288.016 401.041 280.825 401.076 271.838C401.093 266.836 403.537 262.38 407.232 259.071C407.346 258.969 407.46 258.872 407.579 258.776C412.041 254.95 417.783 252.949 423.661 253.171C434.576 253.756 444.103 261.089 450.72 269.792C461.374 283.793 466.041 303.444 458.582 319.377C452.022 333.395 438.032 341.717 423.752 348.407C421.757 349.339 419.767 350.249 417.783 351.124C417.772 351.124 417.755 351.136 417.743 351.141C417.647 351.181 417.55 351.226 417.465 351.266C417.055 351.448 416.646 351.63 416.237 351.806L416.424 351.931L417.01 352.312C416.805 352.187 416.606 352.068 416.402 351.948C416.339 351.909 416.277 351.875 416.214 351.84C409.199 347.634 402.093 343.183 397.244 336.612C392.219 329.791 390.201 320.025 394.646 312.811H394.657Z" fill="#E0E0E0"/>
<path d="M441.449 296.975C443.001 300.505 444.03 304.245 444.507 308.076C444.882 311.493 444.74 314.943 444.092 318.314C442.699 325.243 439.664 331.74 435.235 337.254C431.898 341.438 428.044 345.19 423.763 348.407C421.768 349.339 419.778 350.249 417.794 351.124C417.783 351.124 417.766 351.135 417.755 351.141C417.658 351.181 417.561 351.226 417.476 351.266C417.067 351.448 416.657 351.63 416.248 351.806L416.436 351.931L417.021 352.312C416.817 352.187 416.618 352.068 416.413 351.948C416.351 351.909 416.288 351.874 416.225 351.84C419.358 340.886 416.982 329.097 409.853 320.207C406.323 315.881 401.82 312.453 396.71 310.202C397.028 309.867 397.369 309.554 397.716 309.253C399.683 310.157 401.57 311.231 403.344 312.47C409.705 316.864 414.48 323.191 416.964 330.512C419.182 337.152 419.46 344.291 417.76 351.084C418.113 350.857 418.465 350.618 418.806 350.385C425.338 345.98 431.358 340.688 435.895 334.202C439.806 328.716 442.307 322.355 443.182 315.682C444.052 308.389 442.227 301.215 438.97 294.701C435.372 287.738 430.841 281.297 425.497 275.562C420.131 269.667 414.065 264.454 407.431 260.032C407.119 259.822 407.028 259.407 407.221 259.088C407.295 258.946 407.414 258.844 407.568 258.793C407.721 258.753 407.886 258.787 408.011 258.884C408.83 259.429 409.643 259.981 410.444 260.549C417.124 265.279 423.189 270.821 428.505 277.045C433.638 283.048 438.311 289.71 441.437 296.992L441.449 296.975Z" fill="white"/>
<path d="M308.416 14.258C309.613 8.75781 306.125 3.32853 300.625 2.13131C295.124 0.934096 289.694 4.42231 288.497 9.92245C287.3 15.4226 290.788 20.8519 296.289 22.0491C301.789 23.2463 307.219 19.7581 308.416 14.258Z" fill="#E0E0E0"/>
<path d="M425.241 158.714C428.673 158.714 431.455 155.932 431.455 152.501C431.455 149.069 428.673 146.288 425.241 146.288C421.81 146.288 419.028 149.069 419.028 152.501C419.028 155.932 421.81 158.714 425.241 158.714Z" fill="#E0E0E0"/>
<path d="M243.33 175.767C246.761 175.767 249.543 172.985 249.543 169.554C249.543 166.122 246.761 163.341 243.33 163.341C239.898 163.341 237.116 166.122 237.116 169.554C237.116 172.985 239.898 175.767 243.33 175.767Z" fill="#E0E0E0"/>
<path d="M246.843 353H463.432C463.744 353 464 352.744 464 352.432C464 352.119 463.744 351.863 463.432 351.863H246.843C246.53 351.863 246.274 352.119 246.274 352.432C246.274 352.744 246.53 353 246.843 353Z" fill="#E0E0E0"/>
<path d="M439.527 54.9281C440.17 50.3749 436.998 46.1628 432.438 45.5205C428.63 44.9861 424.946 47.1291 423.53 50.7103L405.953 70.8557L411.109 85.26L428.783 61.7153C433.138 63.1136 437.805 60.7091 439.198 56.3549C439.345 55.8888 439.453 55.4113 439.522 54.9281H439.527Z" fill="#A0616A"/>
<path d="M366.672 133.327L425.014 71.066L417.146 58.5547L343.972 120.441L366.672 133.327Z" fill="#322E89"/>
<path d="M353.654 95.4976C364.956 95.4976 374.119 86.3357 374.119 75.0338C374.119 63.732 364.956 54.5701 353.654 54.5701C342.351 54.5701 333.188 63.732 333.188 75.0338C333.188 86.3357 342.351 95.4976 353.654 95.4976Z" fill="#2F2E41"/>
<path d="M355.296 63.4717C359.702 59.0038 365.029 55.559 370.907 53.3762C374.681 51.9779 378.786 51.1138 382.731 51.9097C386.676 52.7055 390.405 55.434 391.508 59.305C392.406 62.4712 391.48 65.8762 390.081 68.8605C388.683 71.8391 386.818 74.6017 385.693 77.694C381.873 88.1533 387.25 99.7267 397.71 103.552C400.354 104.519 403.173 104.922 405.982 104.735C402.105 105.252 398.529 107.077 394.743 108.043C390.951 109.015 386.483 108.947 383.663 106.23C380.684 103.359 380.622 98.6864 380.77 94.5539C380.986 88.4091 381.196 82.2586 381.412 76.1137C381.52 72.976 381.617 69.7416 380.485 66.8141C379.354 63.8866 376.665 61.323 373.533 61.3514C371.157 61.3741 369.053 62.8123 367.143 64.2334C365.239 65.6545 363.221 67.1665 360.85 67.3825C358.48 67.5929 355.78 65.8421 355.956 63.4717L355.296 63.4831V63.4717Z" fill="#2F2E41"/>
<path d="M275.926 212.437C271.492 213.67 266.904 211.072 265.671 206.639C264.642 202.932 266.285 198.999 269.65 197.129L287.33 177.074L302.281 180.303L281.247 200.903C283.203 205.041 281.429 209.975 277.29 211.931C276.847 212.141 276.392 212.306 275.92 212.437H275.926Z" fill="#A0616A"/>
<path d="M334.092 140.632L290.024 195.941L276.591 189.779L328.385 109.146L334.092 140.632Z" fill="#322E89"/>
<path d="M298.932 307.644L288.427 307.479L289.694 343.274H298.926L298.932 307.644Z" fill="#A0616A"/>
<path d="M301.286 340.256H283.094C276.693 340.256 271.503 345.445 271.503 351.846V352.221H301.291V340.256H301.286Z" fill="#2F2E41"/>
<path d="M368.462 298.151L356.99 305.518L379.94 333.122L387.717 328.131L368.462 298.151Z" fill="#A0616A"/>
<path d="M388.069 324.322L372.76 334.151C367.371 337.612 365.808 344.78 369.27 350.169L369.474 350.487L394.538 334.395L388.069 324.322Z" fill="#2F2E41"/>
<path d="M372.55 188.858C372.55 188.858 347.059 104.2 338.867 103.058C330.676 101.915 317.476 124.778 317.476 124.778C300.365 146.612 282.719 217.331 282.719 217.331C282.719 217.331 312.138 219.173 333.637 230.61C355.137 242.047 380.52 230.03 380.52 230.03L372.55 188.852V188.858Z" fill="#322E89"/>
<path opacity="0.1" d="M372.55 188.858C372.55 188.858 347.059 104.2 338.867 103.058C330.676 101.915 320.83 125.011 320.83 125.011C312.303 160.254 282.719 217.331 282.719 217.331C282.719 217.331 312.138 219.173 333.637 230.61C355.137 242.047 380.52 230.03 380.52 230.03L372.55 188.852V188.858Z" fill="black"/>
<path d="M351.641 163.528V206.07L356.644 267.689L381.656 314.301L369.719 322.827L335.61 278.489L322.12 234.464L300.933 331.922L285.016 330.786L296.073 195.662L317.049 157.628L351.641 163.528Z" fill="#282560"/>
<path d="M325.94 122.385C317.982 130.343 325.372 138.869 325.372 138.869L316.276 159.333L352.09 168.997L364.608 113.074L356.081 103.979C339.027 103.41 339.015 103.058 339.015 103.058C336.025 105.98 325.94 122.385 325.94 122.385Z" fill="#E7EAF6"/>
<path d="M366.046 107.281C359.253 102.268 349.685 103.712 344.672 110.499C344.637 110.544 344.603 110.595 344.569 110.641C335.565 123.175 327.242 143.417 338.714 168.661C357.133 209.197 373.158 229.945 379.678 229.945C379.962 229.945 380.247 229.905 380.514 229.814C384.527 228.455 390.326 221.668 391.372 215.688C391.747 213.545 391.656 210.567 389.098 208.52C381.742 202.637 368.542 184.327 364.426 160.226C362.152 146.907 366.563 134.777 370.668 126.944C374.249 120.242 372.368 111.931 366.245 107.429L366.046 107.281Z" fill="#322E89"/>
<path d="M347.48 95.3328C355.8 95.3328 362.544 88.5886 362.544 80.2692C362.544 71.9498 355.8 65.2056 347.48 65.2056C339.16 65.2056 332.415 71.9498 332.415 80.2692C332.415 88.5886 339.16 95.3328 347.48 95.3328Z" fill="#A0616A"/>
<path d="M326.293 79.1323H348.048L348.27 76.0116L349.384 79.1323H352.732L353.176 72.942L355.387 79.1323H361.868V78.8254C361.856 69.8554 354.586 62.5851 345.615 62.5737H342.545C333.575 62.5851 326.304 69.8554 326.293 78.8254V79.1323Z" fill="#2F2E41"/>
<path d="M358.582 90.3531L367.865 87.3404V64.7961H350.334L350.766 65.2282C356.803 71.2593 363.522 92.661 358.582 90.3474V90.3531Z" fill="#2F2E41"/>
</g>
<defs>
<clipPath id="clip0_3424_1399">
<rect width="464" height="353" fill="white"/>
</clipPath>
</defs>
</svg>
