<svg width="464" height="319" viewBox="0 0 464 319" fill="none" xmlns="http://www.w3.org/2000/svg">
<g clip-path="url(#clip0_3424_1775)">
<path d="M10.0573 217.887C-4.80114 185.032 -4.25199 143.375 18.8044 115.651C26.5161 154.099 47.5799 188.578 78.2695 212.991C90.139 222.366 104.315 231.553 107.555 246.325C109.571 255.519 106.715 265.239 101.765 273.241C96.8229 281.251 89.9272 287.833 83.1177 294.328L82.3567 296.548C52.7105 276.018 24.9079 250.742 10.0573 217.887Z" fill="#E0E0E0"/>
<path d="M19.4477 116.051C14.1445 145.101 18.0827 176.042 30.9798 202.66C33.7648 208.418 37.0989 214.011 41.5549 218.64C45.9324 223.119 51.4317 226.344 57.4802 227.975C63.0894 229.615 69.0124 230.635 74.1273 233.608C79.5168 236.738 82.8588 241.994 84.1611 248.027C85.7536 255.402 84.6004 262.909 83.2197 270.213C81.6899 278.325 79.964 286.719 82.1841 294.87C82.4509 295.858 80.9054 296.219 80.6387 295.231C76.7711 281.047 84.2866 267.067 83.2354 252.805C82.749 246.152 80.2464 239.61 74.5431 235.75C69.5537 232.376 63.4424 231.317 57.7548 229.709C51.7769 228.022 46.411 225.441 41.8452 221.158C37.1695 216.781 33.6158 211.305 30.6974 205.649C24.1626 192.767 19.6987 178.944 17.4629 164.674C14.8192 148.404 14.9761 131.804 17.9336 115.588C18.1141 114.584 19.636 115.062 19.4556 116.059L19.4477 116.051Z" fill="white"/>
<path d="M26.3278 194.234C16.3882 197.419 5.60135 192.932 0.855132 183.643C0.392278 182.733 1.78869 181.972 2.25154 182.882C6.66043 191.551 16.7256 195.709 25.967 192.689C26.9397 192.375 27.2928 193.92 26.3278 194.234Z" fill="white"/>
<path d="M54.5227 227.52C59.3317 218.381 60.5163 207.759 57.8412 197.78C57.5744 196.791 59.1199 196.431 59.3866 197.419C62.148 207.806 60.8929 218.859 55.8642 228.36C55.3857 229.262 54.0363 228.422 54.5149 227.52H54.5227Z" fill="white"/>
<path d="M16.8589 148.921C20.8912 148.498 24.445 146.074 26.3121 142.473C26.7828 141.563 28.1243 142.41 27.6615 143.312C25.5825 147.282 21.6757 149.965 17.2198 150.475C16.7961 150.561 16.3804 150.302 16.2627 149.879C16.1685 149.455 16.4274 149.023 16.8589 148.921Z" fill="white"/>
<path d="M140.896 115.972C140.622 116.553 140.347 117.126 140.072 117.714C136.401 125.496 133.373 133.561 131.004 141.829C130.807 142.465 130.627 143.116 130.454 143.752C124.971 163.741 123.245 184.569 125.371 205.186C126.226 213.392 127.701 221.519 129.78 229.497C132.659 240.52 136.66 252.232 135.758 263.239C135.679 264.384 135.522 265.529 135.303 266.659L85.126 297.302C84.977 297.317 84.8358 297.341 84.6867 297.349L82.7411 298.667C82.6078 298.259 82.4744 297.843 82.3332 297.435C82.2548 297.2 82.1842 296.956 82.1057 296.729C82.0586 296.572 82.0037 296.415 81.9488 296.274C81.9331 296.219 81.9174 296.172 81.9096 296.125C81.8547 295.984 81.8233 295.85 81.7762 295.717C81.0309 293.363 80.2935 290.994 79.5796 288.617C79.5796 288.617 79.5796 288.607 79.5796 288.586C74.1587 270.472 70.2049 251.746 69.2164 233.02C69.185 232.455 69.1536 231.882 69.1458 231.302C68.7457 222.86 69.0438 214.396 70.0166 205.994C70.5657 201.397 71.3502 196.831 72.3622 192.312C75.006 180.647 79.4619 169.467 85.5732 159.19C97.7643 138.699 116.373 122.335 139.155 116.388C139.735 116.239 140.308 116.09 140.896 115.949V115.972Z" fill="#E0E0E0"/>
<path d="M141.171 116.678C119.44 136.683 103.962 163.756 98.235 192.775C96.9955 199.051 96.2894 205.523 97.0582 211.901C97.8584 218.114 100.306 223.998 104.15 228.94C107.641 233.624 111.752 238.009 114.051 243.461C116.467 249.204 115.973 255.417 113.384 261.011C110.214 267.859 104.778 273.163 99.2784 278.16C93.175 283.714 86.7421 289.378 83.6119 297.223C83.2354 298.172 81.7762 297.529 82.1606 296.58C87.6129 282.93 102.032 276.285 109.775 264.274C113.392 258.665 115.337 251.934 113.101 245.423C111.148 239.727 106.912 235.201 103.334 230.494C99.5765 225.543 96.8464 220.256 95.7795 214.09C94.6812 207.782 95.1441 201.271 96.2188 194.987C98.7606 180.772 103.515 167.043 110.316 154.303C118.004 139.719 128.124 126.563 140.245 115.392C140.998 114.702 141.924 115.996 141.178 116.678H141.171Z" fill="white"/>
<path d="M99.6001 183.243C89.7467 179.799 83.8316 169.726 85.636 159.449C85.8164 158.445 87.3854 158.673 87.205 159.685C85.5105 169.256 91.0412 178.638 100.236 181.792C101.2 182.121 100.557 183.573 99.5922 183.243H99.6001Z" fill="white"/>
<path d="M102.071 226.799C111.415 222.39 118.758 214.631 122.633 205.052C123.017 204.103 124.469 204.746 124.084 205.696C120.036 215.651 112.38 223.723 102.644 228.281C101.718 228.713 101.146 227.23 102.071 226.799Z" fill="white"/>
<path d="M119.322 141.359C122.798 143.453 127.097 143.65 130.753 141.9C131.678 141.453 132.243 142.944 131.325 143.383C127.277 145.305 122.539 145.093 118.679 142.818C118.287 142.63 118.114 142.175 118.271 141.767C118.452 141.367 118.914 141.186 119.322 141.359Z" fill="white"/>
<path d="M376.466 105.696C376.105 105.931 375.76 106.198 375.43 106.488L337.735 96.8778L335.162 87.7854L320.931 89.8722L323.92 106.417C324.414 109.163 326.666 111.25 329.435 111.54L373.453 116.176C375.407 120.287 380.318 122.037 384.428 120.083C388.539 118.13 390.289 113.219 388.335 109.108C386.382 104.997 381.471 103.248 377.36 105.201C377.054 105.35 376.748 105.515 376.466 105.696Z" fill="#FFDEE0"/>
<path d="M318.389 98.125L328.101 106.503L341.689 118.216L347.69 87.5108L348.318 84.3178L348.812 81.7839L335.044 57.8018L323.567 58.4607L322.782 58.5078L322.767 58.6804L322.586 60.2886L320.233 81.4544L320.178 81.9643L318.389 98.125Z" fill="#E7EAF6"/>
<path d="M381.871 308.12H391.489L396.062 271.021H381.871V308.12Z" fill="#FFDEE0"/>
<path d="M424.634 99.1763L426.211 96.2109L426.258 96.1952L436.378 92.0452C436.488 91.9982 436.605 91.9746 436.723 91.9668C437.343 91.9197 437.892 92.3826 437.939 93.0102C437.978 93.5044 437.688 93.9673 437.233 94.1477L424.642 99.1842L424.634 99.1763Z" fill="#282560"/>
<path d="M389.998 94.634L379.125 86.5301C378.623 86.1536 378.521 85.4475 378.897 84.9454C379.196 84.5454 379.713 84.3885 380.176 84.5532C380.286 84.5924 380.388 84.6473 380.482 84.7179L389.237 91.3626L389.998 94.634Z" fill="#282560"/>
<path d="M425.52 99.6862L389.018 94.9007L387.825 80.1678L430.47 85.7535L425.52 99.6783V99.6862Z" fill="#3F3D56"/>
<path d="M426.383 99.2313L388.5 94.2654L387.448 82.0507C387.331 80.6778 388.351 79.4697 389.723 79.352C389.904 79.3363 390.084 79.3442 390.265 79.3677L428.533 84.3807C429.898 84.5611 430.863 85.8163 430.682 87.1813C430.659 87.3618 430.619 87.5344 430.557 87.707L426.399 99.2391L426.383 99.2313ZM388.986 93.8025L426.038 98.6586L430.055 87.5265C430.423 86.5067 429.898 85.377 428.87 85.0004C428.737 84.9534 428.595 84.922 428.454 84.8984L390.186 79.8855C389.104 79.7443 388.115 80.5053 387.974 81.58C387.958 81.7212 387.951 81.8624 387.966 82.0036L388.978 93.7947L388.986 93.8025Z" fill="#E7EAF6"/>
<path d="M425.52 99.6862L389.018 94.9007L387.825 80.1678L430.47 85.7535L425.52 99.6783V99.6862Z" fill="#282560"/>
<path d="M420.35 129.16L386.413 124.712C385.456 124.586 384.781 123.708 384.907 122.751L388.704 93.7319L426.109 98.6351L422.312 127.654C422.186 128.611 421.308 129.285 420.35 129.16ZM389.151 94.3125L385.417 122.821C385.33 123.504 385.809 124.123 386.484 124.21L420.421 128.658C421.104 128.744 421.723 128.266 421.81 127.591L425.544 99.0822L389.151 94.3125Z" fill="#E7EAF6"/>
<path d="M389.072 94.1791L385.338 122.688C385.236 123.496 385.801 124.241 386.617 124.351L420.256 128.76C421.064 128.862 421.81 128.297 421.919 127.481L425.654 98.9724L389.072 94.1791Z" fill="#282560"/>
<path d="M430.58 85.9104L387.668 80.2856L387.684 80.1522C387.809 79.203 388.68 78.5361 389.629 78.6617L429.105 83.8315C430.055 83.957 430.721 84.8278 430.596 85.7771L430.58 85.9104Z" fill="#FAAE43"/>
<path d="M393.489 118.663L386.225 117.714C386.076 117.698 385.974 117.557 385.989 117.408C386.005 117.259 386.146 117.157 386.295 117.173L393.56 118.122C393.709 118.138 393.811 118.279 393.795 118.428C393.779 118.577 393.638 118.679 393.489 118.663Z" fill="#FAAE43"/>
<path d="M396.776 116.38L389.512 115.431C389.363 115.416 389.261 115.274 389.276 115.125C389.292 114.976 389.433 114.874 389.582 114.89L396.847 115.839C396.996 115.855 397.098 115.996 397.082 116.145C397.066 116.294 396.925 116.396 396.776 116.38Z" fill="#FAAE43"/>
<path d="M410.034 87.7305L407.273 87.3696C406.904 87.3225 406.645 86.9852 406.692 86.6165L407.32 81.8389L411.415 82.3723L410.787 87.1499C410.74 87.5186 410.403 87.7775 410.034 87.7305Z" fill="#FAAE43"/>
<path d="M281.455 308.904H291.073L295.646 271.805H281.455V308.904Z" fill="#FFDEE0"/>
<path d="M273.767 292.563L299.655 296.486L337.319 169.02L377.321 297.27L406.347 293.348L368.691 144.293V132.525L363.592 114.874L364.125 110.097L367.836 76.6847L369.444 62.195L369.546 61.2615C369.727 59.6376 368.644 58.1313 367.044 57.794L354.962 55.2522H335.217L323.567 58.4608L322.767 58.6805L322.406 58.7824L322.586 60.2887L325.316 83.1804L325.465 84.4356L328.101 106.504L328.682 111.344C305.931 127.818 305.147 144.293 305.147 144.293L273.767 292.563Z" fill="#282560"/>
<path d="M347.478 45.3282C358.119 45.3282 366.746 36.7019 366.746 26.0609C366.746 15.4198 358.119 6.79358 347.478 6.79358C336.837 6.79358 328.211 15.4198 328.211 26.0609C328.211 36.7019 336.837 45.3282 347.478 45.3282Z" fill="#FFDEE0"/>
<path d="M327.236 106.913L326.524 112.358L364.64 117.342L365.352 111.897L327.236 106.913Z" fill="#FAAE43"/>
<path d="M416.475 113.54C416.114 113.776 415.769 114.043 415.439 114.333L377.744 104.723L375.171 95.6304L360.94 97.7171L363.929 114.262C364.423 117.008 366.675 119.095 369.444 119.385L413.463 124.021C415.416 128.132 420.327 129.882 424.438 127.928C428.548 125.975 430.298 121.064 428.345 116.953C426.391 112.842 421.48 111.093 417.369 113.046C417.063 113.195 416.757 113.36 416.475 113.54Z" fill="#FFDEE0"/>
<path d="M358.493 62.7048L365.161 57.6056C366.965 56.9231 369.436 58.8686 369.868 60.7436L379.282 99.1841L359.669 113.305L356.924 108.99L358.493 62.7048Z" fill="#E7EAF6"/>
<path d="M362.243 10.1121C365.843 9.67279 369.797 9.97875 372.606 12.2852C375.414 14.5916 376.324 19.3692 373.665 21.8404C371.311 24.0291 367.632 23.5114 364.478 24.139C358.885 25.3942 354.876 30.3051 354.766 36.032C354.813 44.0103 362.47 50.0588 363.851 57.9195C364.792 63.2855 362.525 68.9339 358.618 72.723C354.711 76.5121 349.33 78.5597 343.909 79.1167C338.488 79.6737 333.012 78.8264 327.74 77.43C322.453 76.0336 317.244 74.0488 312.811 70.8481C308.379 67.6473 304.739 63.1364 303.311 57.8567C301.883 52.5771 302.911 46.5207 306.582 42.4649C310.787 37.8206 317.777 36.2281 321.417 31.121C325.497 25.402 323.983 17.2589 327.285 11.0614C329.49 6.92704 333.655 4.10285 338.104 2.6123C342.552 1.12175 347.282 0.831483 351.966 0.682428C354.429 0.603978 356.971 0.580443 359.261 1.48262C361.552 2.38479 363.576 4.42449 363.694 6.88782C363.812 9.35115 362.235 10.1043 362.235 10.1043L362.243 10.1121Z" fill="#FFC676"/>
<path d="M147.109 317.401H66.9727C63.9916 317.401 61.5675 314.976 61.5675 311.995V262.031C61.5753 252.052 69.6635 243.971 79.6424 243.956H147.109C150.09 243.956 152.515 246.38 152.515 249.361V311.995C152.515 314.976 150.09 317.401 147.109 317.401ZM79.6424 245.525C70.5343 245.533 63.1443 252.915 63.1365 262.031V311.995C63.1365 314.113 64.8546 315.832 66.9727 315.832H147.109C149.227 315.832 150.946 314.113 150.946 311.995V249.361C150.946 247.243 149.227 245.525 147.109 245.525H79.6424Z" fill="#282560"/>
<path d="M82.294 247.509C73.1311 247.517 65.7097 254.939 65.7018 264.102V309.924C65.7018 312.089 67.4591 313.847 69.6243 313.847H144.458C146.623 313.847 148.38 312.089 148.38 309.924V251.44C148.38 249.275 146.623 247.517 144.458 247.517H82.294V247.509Z" fill="#FAAE43"/>
<path d="M112.811 262.478H101.695C100.612 262.478 99.7334 261.599 99.7334 260.516V242.41H114.772V260.516C114.772 261.599 113.894 262.478 112.811 262.478Z" fill="#282560"/>
<path d="M174.01 261.881C165.961 261.889 159.442 268.416 159.426 276.465V309.924C159.426 312.089 161.183 313.847 163.349 313.847H220.358C222.523 313.847 224.281 312.089 224.281 309.924V265.804C224.281 263.639 222.523 261.881 220.358 261.881H174.01Z" fill="#282560"/>
<path d="M233.13 258.532H175.508C172.464 258.532 170.001 256.06 169.993 253.017V204.652C169.993 201.608 172.464 199.145 175.508 199.137H226.924C236.079 199.145 243.501 206.566 243.516 215.729V248.145C243.516 253.88 238.864 258.524 233.13 258.532ZM175.508 200.714C173.327 200.714 171.562 202.479 171.562 204.66V253.024C171.562 255.205 173.327 256.971 175.508 256.971H233.13C238.001 256.971 241.94 253.017 241.947 248.153V215.737C241.94 207.445 235.216 200.73 226.924 200.714H175.508Z" fill="#282560"/>
<path d="M223.096 317.557H160.603C157.559 317.557 155.095 315.086 155.088 312.042V274.339C155.095 265.412 162.336 258.179 171.264 258.163H223.096C226.14 258.163 228.603 260.634 228.611 263.678V312.042C228.611 315.086 226.14 317.55 223.096 317.557ZM171.264 259.74C163.199 259.748 156.672 266.283 156.657 274.347V312.05C156.657 314.231 158.422 315.996 160.603 315.996H223.096C225.277 315.996 227.042 314.231 227.042 312.05V263.686C227.042 261.505 225.277 259.74 223.096 259.74H171.264Z" fill="#282560"/>
<path d="M178.254 202.856C176.089 202.856 174.331 204.613 174.331 206.778V250.898C174.331 253.064 176.089 254.821 178.254 254.821H230.392C235.248 254.821 239.178 250.883 239.186 246.027V217.855C239.178 209.579 232.471 202.871 224.186 202.856H178.254Z" fill="#E6E6E6"/>
<path d="M210.968 214.529H202.872C201.789 214.529 200.91 213.65 200.91 212.568V198.541H212.929V212.568C212.929 213.65 212.05 214.529 210.968 214.529Z" fill="#282560"/>
<path d="M381.471 300.243L392.979 299.553V304.48L403.915 312.034C405.312 312.999 405.665 314.921 404.7 316.318C404.127 317.149 403.178 317.644 402.166 317.644H388.468L386.107 312.764L385.181 317.644H380.019L381.471 300.236V300.243Z" fill="#2F2E41"/>
<path d="M281.055 300.243L292.563 299.553V304.48L303.499 312.034C304.896 312.999 305.249 314.921 304.284 316.318C303.711 317.149 302.762 317.644 301.75 317.644H288.052L285.691 312.764L284.765 317.644H279.603L281.055 300.236V300.243Z" fill="#2F2E41"/>
<path d="M86.24 302.377H64.9173C64.4858 302.377 64.1328 302.024 64.1328 301.593C64.1328 301.161 64.4858 300.808 64.9173 300.808H86.24C86.6715 300.808 87.0245 301.161 87.0245 301.593C87.0245 302.024 86.6715 302.377 86.24 302.377Z" fill="#282560"/>
<path d="M180.38 300.808H159.057C158.626 300.808 158.273 300.455 158.273 300.024C158.273 299.592 158.626 299.239 159.057 299.239H180.38C180.811 299.239 181.164 299.592 181.164 300.024C181.164 300.455 180.811 300.808 180.38 300.808Z" fill="#FAAE43"/>
<path d="M195.285 244.324H173.963C173.531 244.324 173.178 243.971 173.178 243.54C173.178 243.108 173.531 242.755 173.963 242.755H195.285C195.717 242.755 196.07 243.108 196.07 243.54C196.07 243.971 195.717 244.324 195.285 244.324Z" fill="#282560"/>
<path d="M195.285 238.048H173.963C173.531 238.048 173.178 237.695 173.178 237.264C173.178 236.832 173.531 236.479 173.963 236.479H195.285C195.717 236.479 196.07 236.832 196.07 237.264C196.07 237.695 195.717 238.048 195.285 238.048Z" fill="#282560"/>
<path d="M464 316.875H4.28339V318.444H464V316.875Z" fill="#E0E0E0"/>
<path d="M196.062 273.194H187.966C186.883 273.194 186.005 272.315 186.005 271.233V257.206H198.023V271.233C198.023 272.315 197.145 273.194 196.062 273.194Z" fill="#FAAE43"/>
</g>
<defs>
<clipPath id="clip0_3424_1775">
<rect width="464" height="317.793" fill="white" transform="translate(0 0.651001)"/>
</clipPath>
</defs>
</svg>
