<svg width="464" height="331" viewBox="0 0 464 331" fill="none" xmlns="http://www.w3.org/2000/svg">
<g clip-path="url(#clip0_3424_1430)">
<path d="M423.683 297.45C427.75 304.641 424.3 328.924 424.3 328.924C424.3 328.924 401.703 319.361 397.636 312.177C393.568 304.986 396.101 295.865 403.295 291.8C410.489 287.734 419.616 290.265 423.683 297.456V297.45Z" fill="#E0E0E0"/>
<path d="M424.629 328.89L424.148 328.992C419.525 307.036 403.374 292.145 403.216 291.998L403.544 291.635C403.709 291.783 419.973 306.775 424.629 328.89Z" fill="white"/>
<path d="M460.658 305.637C455.134 315.647 424 329.213 424 329.213C424 329.213 418.868 295.661 424.385 285.651C429.909 275.641 442.502 272 452.517 277.52C462.533 283.041 466.175 295.627 460.652 305.637H460.658Z" fill="#E0E0E0"/>
<path d="M424.278 329.575L423.808 329.083C446.337 307.698 452.166 277.871 452.223 277.577L452.891 277.702C452.835 278.002 446.966 308.038 424.272 329.575H424.278Z" fill="white"/>
<path d="M109.089 229.825C105.526 229.814 101.979 229.355 98.5294 228.46L97.8496 228.274L97.2208 227.957C74.4253 216.531 55.193 201.442 40.0564 183.109C27.5313 167.845 17.7594 150.508 11.1938 131.887C3.34222 109.59 -0.436267 86.0654 0.0395838 62.4329C0.0509136 61.9347 0.0565785 61.5553 0.0565785 61.2892C0.0565785 49.8014 6.43525 39.7233 16.3092 35.6128C23.8661 32.4648 92.4793 4.29721 97.4361 2.26461C106.772 -2.41206 116.731 1.48894 118.328 2.17402C121.903 3.63477 185.333 29.566 199.036 36.0884C213.164 42.809 216.931 54.8913 216.931 60.9665C216.931 88.4773 212.167 114.188 202.763 137.384C195.172 156.159 184.409 173.495 170.949 188.63C144.976 217.839 118.997 228.194 118.747 228.291C115.643 229.361 112.374 229.882 109.094 229.831L109.089 229.825ZM102.982 214.702C105.237 215.206 110.42 215.965 113.802 214.731C118.096 213.168 139.838 201.895 160.158 179.044C188.233 147.468 202.475 107.773 202.497 61.0684C202.446 60.1229 201.772 53.374 192.833 49.1163C179.39 42.7184 113.468 15.7794 112.799 15.5076L112.618 15.4284C111.236 14.8509 106.84 13.6336 103.809 15.2189L103.203 15.502C102.466 15.8021 29.6386 45.7022 21.8721 48.9351C16.4394 51.1998 14.5021 56.805 14.5021 61.2949C14.5021 61.6233 14.4964 62.0989 14.4794 62.716C13.8563 94.677 21.2603 173.32 102.988 214.702H102.982Z" fill="#FFC676"/>
<path d="M100.456 8.8268C100.456 8.8268 26.9592 38.9931 19.085 42.2713C11.2108 45.5495 7.27369 53.4194 7.27369 61.2893C7.27369 69.1593 1.37087 171.854 100.456 221.508C100.456 221.508 109.446 223.993 116.272 221.508C123.098 219.022 209.714 177.046 209.714 60.9666C209.714 60.9666 209.714 49.1617 195.932 42.6053C182.149 36.0489 115.524 8.8268 115.524 8.8268C115.524 8.8268 107.344 5.22022 100.45 8.8268H100.456Z" fill="#FAAE43"/>
<path opacity="0.1" d="M108.33 32.4366V193.374C108.33 193.374 34.1819 157.699 34.8334 63.9164L108.324 32.4366H108.33Z" fill="black"/>
<path d="M109.298 148.102L85.6758 117.749L99.4131 107.071L110.596 121.441L148.38 81.5813L161.013 93.5448L109.298 148.102Z" fill="white"/>
<path d="M463.434 330.651H247.601C247.29 330.651 247.035 330.396 247.035 330.085C247.035 329.773 247.29 329.519 247.601 329.519H463.434C463.745 329.519 464 329.773 464 330.085C464 330.396 463.745 330.651 463.434 330.651Z" fill="#E0E0E0"/>
<path d="M309.989 321.728H318.752L322.916 287.949H309.989V321.728Z" fill="#FFB8B8"/>
<path d="M307.757 318.869H325.012C331.085 318.869 336.007 323.789 336.007 329.858V330.215H307.757V318.869Z" fill="#2F2E41"/>
<path d="M339.446 321.728H348.21L352.373 287.949H339.446V321.728Z" fill="#FFB8B8"/>
<path d="M337.214 318.869H354.469C360.542 318.869 365.465 323.789 365.465 329.858V330.215H337.214V318.869Z" fill="#2F2E41"/>
<path d="M323.76 203.118L325.862 310.268L308.861 309.215L297.067 240.968L293.339 194.433L323.76 203.118Z" fill="#282560"/>
<path d="M352.934 185.125L355.319 311.967L335.492 311.401L331.209 236.002L323.76 208.701L293.339 194.433L298.308 160.309L343.004 159.686L352.934 185.125Z" fill="#282560"/>
<path d="M318.752 71.5825C327.149 71.5825 333.957 64.7789 333.957 56.3862C333.957 47.9935 327.149 41.1898 318.752 41.1898C310.355 41.1898 303.548 47.9935 303.548 56.3862C303.548 64.7789 310.355 71.5825 318.752 71.5825Z" fill="#FFB8B8"/>
<path d="M331.362 77.9861L333.69 81.5134L339.899 98.8839L334.931 166.509L305.757 167.132L302.035 89.5759L309.836 79.8262L331.362 77.9861Z" fill="#E7EAF6"/>
<path d="M290.235 91.4386L285.267 90.8158C285.267 90.8158 284.026 91.4386 283.403 95.7812C282.78 100.124 275.331 138.59 275.331 138.59L285.261 185.742L296.438 170.851L289.612 144.79L296.438 118.729L290.229 91.4273L290.235 91.4386Z" fill="#282560"/>
<path d="M353.557 90.8158H357.279L366.592 141.076L357.902 180.16L349.212 165.892L351.694 150.378L350.453 136.733L346.108 128.665L353.557 90.8158Z" fill="#282560"/>
<path d="M327.737 56.3862L324.972 55.6955C324.972 55.6955 322.899 43.9528 318.061 45.3343C313.223 46.7158 300.783 48.0973 300.783 42.5714C300.783 37.0454 312.532 32.2102 319.443 32.9009C326.354 33.5917 335.18 35.8847 337.412 46.0251C340.987 62.2802 330.031 66.3907 330.031 66.3907L330.212 65.7962C331.243 62.4444 330.286 58.7982 327.737 56.3862Z" fill="#2F2E41"/>
<path d="M285.89 90.8158L305.757 82.7477L310.413 79.3336L324.383 141.07L330.903 77.4766L356.667 90.8158L347.977 133.008L346.737 149.138L350.464 162.166C350.464 162.166 363.499 171.474 359.154 181.4C354.809 191.325 349.841 191.947 349.841 191.947C349.841 191.947 328.734 172.091 327.493 167.132C326.252 162.172 324.389 153.481 324.389 153.481C324.389 153.481 313.835 193.187 301.418 192.57C289 191.953 289 178.92 289 178.92L292.105 165.269L297.073 151.001L294.591 127.425L285.901 90.8215L285.89 90.8158Z" fill="#282560"/>
</g>
<defs>
<clipPath id="clip0_3424_1430">
<rect width="464" height="330.651" fill="white"/>
</clipPath>
</defs>
</svg>
