<svg width="165" height="56" viewBox="0 0 165 56" fill="none" xmlns="http://www.w3.org/2000/svg">
<g clip-path="url(#clip0_3424_344)">
<path d="M40.4542 40.9347C33.9517 54.1523 34.8843 56.7016 26.8418 55.7575C25.0457 55.5872 23.5892 54.9838 22.5644 54.0397C20.253 51.8945 18.2006 52.4084 15.8058 53.7827C13.1518 55.414 10.5007 56.1011 7.84676 55.7575C-6.01599 54.1263 1.34428 31.8978 8.1893 24.3449C15.0343 16.9652 24.6168 25.5459 17.0032 29.8363C16.6607 30.0933 16.2318 30.0933 15.9756 30.3502C12.5531 33.0122 6.73567 45.2828 12.8956 46.2269C19.7406 47.2576 19.9968 31.6379 26.672 23.9118C32.1469 17.56 42.1582 24.0821 35.2297 30.2636C32.1498 33.0093 26.1596 43.051 30.2672 45.6264C34.8872 48.5453 34.8958 41.873 36.7783 39.0407C37.806 37.4094 41.3983 38.7837 40.457 40.9289L40.4542 40.9347Z" fill="white"/>
<path d="M73.9021 34.7301C67.5723 45.9729 53.8823 60.3049 40.5348 54.2995C33.7099 51.294 33.4623 41.9048 37.9441 37.6029C37.9441 37.6029 37.947 37.6 37.9528 37.5971C38.1168 37.4845 40.9262 35.7176 44.4552 35.8157C45.7966 35.8533 47.1063 36.2834 48.2174 37.037C48.4419 37.19 48.6607 37.3604 48.8334 37.5625C50.2007 39.2804 48.5772 42.9702 46.1794 41.7691C44.556 40.9953 43.0995 41.9395 43.016 43.7411C42.7569 47.1739 51.0585 47.7774 50.8023 39.7943C50.8023 37.7357 50.2007 36.6184 49.4321 34.9871C49.4321 34.9871 49.4293 34.9842 49.4264 34.9784C49.4206 34.9698 49.412 34.9525 49.3976 34.9265C49.3918 34.912 49.3861 34.9005 49.3746 34.886C49.3659 34.8687 49.3544 34.8543 49.3458 34.8341C48.8248 33.9044 46.2428 28.9298 47.9871 25.0667C48.039 24.9714 48.0936 24.8733 48.1483 24.7751C51.9997 16.8786 64.8349 18.5965 65.0047 25.9762C65.1774 31.8141 57.7308 31.2973 58.1597 27.4371C58.5022 24.7751 54.481 25.289 55.9346 28.208C56.9622 30.2694 59.5298 34.8168 59.8695 37.9927C60.5546 43.6573 69.1986 34.2162 70.2234 32.6716C71.3374 31.1269 74.7599 32.585 73.9021 34.7301Z" fill="white"/>
<path d="M110.439 34.9899C108.386 39.11 106.587 43.7439 104.106 47.607C100.683 52.9281 95.2056 56.104 90.2431 55.5034C84.5956 54.9029 82.5432 51.2131 81.4292 47.2634C79.7166 41.772 78.1766 46.1489 77.5778 50.0091C76.294 58.1625 64.9989 57.2184 66.6252 48.4645C70.3039 28.8113 78.0902 10.4459 85.534 2.46282C92.2091 -4.65989 103.674 5.38177 94.8602 11.0464C92.6352 12.4207 87.759 18.686 84.5063 24.8646C82.7936 28.2108 83.8213 28.8113 86.4752 26.6662C89.3854 24.0071 92.5517 22.0322 95.2028 21.5154C109.748 18.94 105.557 37.3084 94.0053 30.5263C92.4653 29.8392 82.6238 33.3587 89.0428 40.9116C90.5828 42.7998 92.7215 44.3444 95.0329 44.3444C100.424 44.2578 104.615 36.448 106.84 33.0151C107.353 32.2413 108.467 32.1576 109.322 32.5849L110.007 33.0988C110.519 33.529 110.775 34.2133 110.436 34.987L110.439 34.9899Z" fill="white"/>
<path d="M153.61 35.1601C147.108 48.3777 140.346 56.8747 132.304 55.9306C128.711 55.5004 126.57 52.5844 125.887 49.1515C125.718 47.9504 124.091 47.5202 123.064 48.8945C120.24 52.671 116.388 56.1038 111.941 55.9335C91.6623 54.7324 109.802 11.1329 128.455 23.493C130.766 25.0376 132.476 24.8673 133.846 23.8366C135.3 22.4623 137.099 21.6914 139.238 22.035C142.916 22.6355 145.57 26.5823 142.83 29.9314C142.231 30.6186 141.29 31.3057 140.435 32.0766C135.815 36.7972 134.103 45.7215 137.355 46.322C140.009 46.9226 145.654 39.7999 150.018 33.1911C151.045 31.5598 154.551 33.0207 153.613 35.1659L153.61 35.1601ZM126.656 30.353C121.95 26.0626 114.333 36.5316 113.907 42.6264C113.478 48.2911 117.33 46.2296 119.984 43.9141C122.721 41.4254 125.974 37.4786 127.258 34.3026C127.943 32.5877 127.6 31.2133 126.659 30.3559L126.656 30.353Z" fill="white"/>
<path d="M164.508 51.981C163.319 55.0848 159.986 56.7564 157.13 55.5611C154.275 54.4871 152.965 51.0254 154.154 47.9216C155.343 44.8179 158.676 43.1462 161.532 44.3415C164.387 45.4155 165.697 48.8773 164.508 51.981Z" fill="#FAAE43"/>
</g>
<defs>
<clipPath id="clip0_3424_344">
<rect width="164.945" height="56" fill="white"/>
</clipPath>
</defs>
</svg>
